<svg xmlns="http://www.w3.org/2000/svg" width="1100" height="1125" viewBox="0 0 1100 1125">
<rect width="100%" height="100%" fill="#f8fafc"/>
<text x="24" y="38" font-family="sans-serif" font-size="22" font-weight="700">mean_network_time_spent_s</text>
<text x="24" y="62" font-family="sans-serif" font-size="13" fill="#475569">需要条件・戦略別（複数 seed 平均）</text>
<text x="24" y="103" font-family="sans-serif" font-size="12">800 veh/h  1:1  cooperative_limited</text>
<rect x="350" y="88" width="567.9" height="20" rx="3" fill="#0f766e"/>
<text x="922.9" y="103" font-family="sans-serif" font-size="12">105084.0</text>
<text x="24" y="137" font-family="sans-serif" font-size="12">800 veh/h  1:2  cooperative_limited</text>
<rect x="350" y="122" width="577.1" height="20" rx="3" fill="#0f766e"/>
<text x="932.1" y="137" font-family="sans-serif" font-size="12">106784.6</text>
<text x="24" y="171" font-family="sans-serif" font-size="12">800 veh/h  1:3  cooperative_limited</text>
<rect x="350" y="156" width="548.9" height="20" rx="3" fill="#0f766e"/>
<text x="903.9" y="171" font-family="sans-serif" font-size="12">101572.8</text>
<text x="24" y="205" font-family="sans-serif" font-size="12">800 veh/h  1:4  cooperative_limited</text>
<rect x="350" y="190" width="136.9" height="20" rx="3" fill="#0f766e"/>
<text x="491.9" y="205" font-family="sans-serif" font-size="12">25331.8</text>
<text x="24" y="239" font-family="sans-serif" font-size="12">800 veh/h  1:5  cooperative_limited</text>
<rect x="350" y="224" width="137.8" height="20" rx="3" fill="#0f766e"/>
<text x="492.8" y="239" font-family="sans-serif" font-size="12">25491.6</text>
<text x="24" y="273" font-family="sans-serif" font-size="12">1000 veh/h  1:1  cooperative_limited</text>
<rect x="350" y="258" width="661.9" height="20" rx="3" fill="#0f766e"/>
<text x="1016.9" y="273" font-family="sans-serif" font-size="12">122480.6</text>
<text x="24" y="307" font-family="sans-serif" font-size="12">1000 veh/h  1:2  cooperative_limited</text>
<rect x="350" y="292" width="660.5" height="20" rx="3" fill="#0f766e"/>
<text x="1015.5" y="307" font-family="sans-serif" font-size="12">122213.4</text>
<text x="24" y="341" font-family="sans-serif" font-size="12">1000 veh/h  1:3  cooperative_limited</text>
<rect x="350" y="326" width="643.4" height="20" rx="3" fill="#0f766e"/>
<text x="998.4" y="341" font-family="sans-serif" font-size="12">119056.8</text>
<text x="24" y="375" font-family="sans-serif" font-size="12">1000 veh/h  1:4  cooperative_limited</text>
<rect x="350" y="360" width="633.5" height="20" rx="3" fill="#0f766e"/>
<text x="988.5" y="375" font-family="sans-serif" font-size="12">117217.6</text>
<text x="24" y="409" font-family="sans-serif" font-size="12">1000 veh/h  1:5  cooperative_limited</text>
<rect x="350" y="394" width="182.2" height="20" rx="3" fill="#0f766e"/>
<text x="537.2" y="409" font-family="sans-serif" font-size="12">33706.2</text>
<text x="24" y="443" font-family="sans-serif" font-size="12">1200 veh/h  1:1  cooperative_limited</text>
<rect x="350" y="428" width="710.0" height="20" rx="3" fill="#0f766e"/>
<text x="1065.0" y="443" font-family="sans-serif" font-size="12">131379.2</text>
<text x="24" y="477" font-family="sans-serif" font-size="12">1200 veh/h  1:2  cooperative_limited</text>
<rect x="350" y="462" width="685.2" height="20" rx="3" fill="#0f766e"/>
<text x="1040.2" y="477" font-family="sans-serif" font-size="12">126797.6</text>
<text x="24" y="511" font-family="sans-serif" font-size="12">1200 veh/h  1:3  cooperative_limited</text>
<rect x="350" y="496" width="670.3" height="20" rx="3" fill="#0f766e"/>
<text x="1025.3" y="511" font-family="sans-serif" font-size="12">124029.8</text>
<text x="24" y="545" font-family="sans-serif" font-size="12">1200 veh/h  1:4  cooperative_limited</text>
<rect x="350" y="530" width="657.2" height="20" rx="3" fill="#0f766e"/>
<text x="1012.2" y="545" font-family="sans-serif" font-size="12">121616.2</text>
<text x="24" y="579" font-family="sans-serif" font-size="12">1200 veh/h  1:5  cooperative_limited</text>
<rect x="350" y="564" width="650.1" height="20" rx="3" fill="#0f766e"/>
<text x="1005.1" y="579" font-family="sans-serif" font-size="12">120293.8</text>
<text x="24" y="613" font-family="sans-serif" font-size="12">800 veh/h  1:1  uncontrolled</text>
<rect x="350" y="598" width="565.8" height="20" rx="3" fill="#64748b"/>
<text x="920.8" y="613" font-family="sans-serif" font-size="12">104704.8</text>
<text x="24" y="647" font-family="sans-serif" font-size="12">800 veh/h  1:2  uncontrolled</text>
<rect x="350" y="632" width="580.0" height="20" rx="3" fill="#64748b"/>
<text x="935.0" y="647" font-family="sans-serif" font-size="12">107332.8</text>
<text x="24" y="681" font-family="sans-serif" font-size="12">800 veh/h  1:3  uncontrolled</text>
<rect x="350" y="666" width="474.0" height="20" rx="3" fill="#64748b"/>
<text x="829.0" y="681" font-family="sans-serif" font-size="12">87717.4</text>
<text x="24" y="715" font-family="sans-serif" font-size="12">800 veh/h  1:4  uncontrolled</text>
<rect x="350" y="700" width="136.9" height="20" rx="3" fill="#64748b"/>
<text x="491.9" y="715" font-family="sans-serif" font-size="12">25331.8</text>
<text x="24" y="749" font-family="sans-serif" font-size="12">800 veh/h  1:5  uncontrolled</text>
<rect x="350" y="734" width="137.8" height="20" rx="3" fill="#64748b"/>
<text x="492.8" y="749" font-family="sans-serif" font-size="12">25491.6</text>
<text x="24" y="783" font-family="sans-serif" font-size="12">1000 veh/h  1:1  uncontrolled</text>
<rect x="350" y="768" width="658.9" height="20" rx="3" fill="#64748b"/>
<text x="1013.9" y="783" font-family="sans-serif" font-size="12">121921.0</text>
<text x="24" y="817" font-family="sans-serif" font-size="12">1000 veh/h  1:2  uncontrolled</text>
<rect x="350" y="802" width="659.5" height="20" rx="3" fill="#64748b"/>
<text x="1014.5" y="817" font-family="sans-serif" font-size="12">122043.8</text>
<text x="24" y="851" font-family="sans-serif" font-size="12">1000 veh/h  1:3  uncontrolled</text>
<rect x="350" y="836" width="644.5" height="20" rx="3" fill="#64748b"/>
<text x="999.5" y="851" font-family="sans-serif" font-size="12">119264.8</text>
<text x="24" y="885" font-family="sans-serif" font-size="12">1000 veh/h  1:4  uncontrolled</text>
<rect x="350" y="870" width="596.8" height="20" rx="3" fill="#64748b"/>
<text x="951.8" y="885" font-family="sans-serif" font-size="12">110436.0</text>
<text x="24" y="919" font-family="sans-serif" font-size="12">1000 veh/h  1:5  uncontrolled</text>
<rect x="350" y="904" width="179.1" height="20" rx="3" fill="#64748b"/>
<text x="534.1" y="919" font-family="sans-serif" font-size="12">33133.8</text>
<text x="24" y="953" font-family="sans-serif" font-size="12">1200 veh/h  1:1  uncontrolled</text>
<rect x="350" y="938" width="708.2" height="20" rx="3" fill="#64748b"/>
<text x="1063.2" y="953" font-family="sans-serif" font-size="12">131053.6</text>
<text x="24" y="987" font-family="sans-serif" font-size="12">1200 veh/h  1:2  uncontrolled</text>
<rect x="350" y="972" width="684.7" height="20" rx="3" fill="#64748b"/>
<text x="1039.7" y="987" font-family="sans-serif" font-size="12">126693.6</text>
<text x="24" y="1021" font-family="sans-serif" font-size="12">1200 veh/h  1:3  uncontrolled</text>
<rect x="350" y="1006" width="669.6" height="20" rx="3" fill="#64748b"/>
<text x="1024.6" y="1021" font-family="sans-serif" font-size="12">123898.4</text>
<text x="24" y="1055" font-family="sans-serif" font-size="12">1200 veh/h  1:4  uncontrolled</text>
<rect x="350" y="1040" width="655.4" height="20" rx="3" fill="#64748b"/>
<text x="1010.4" y="1055" font-family="sans-serif" font-size="12">121279.4</text>
<text x="24" y="1089" font-family="sans-serif" font-size="12">1200 veh/h  1:5  uncontrolled</text>
<rect x="350" y="1074" width="640.0" height="20" rx="3" fill="#64748b"/>
<text x="995.0" y="1089" font-family="sans-serif" font-size="12">118434.8</text>
</svg>
