<svg xmlns="http://www.w3.org/2000/svg" width="1300" height="2385">
<rect width="100%" height="100%" fill="#f8fafc"/>
<text x="20" y="30" font-family="sans-serif" font-size="20" font-weight="700">total_time_spent_s: strategy − uncontrolled</text>
<line x1="760.0" y1="52" x2="760.0" y2="2365" stroke="#0f172a"/>
<text x="20" y="76" font-family="sans-serif" font-size="11">cooperative_limited | 800 | 1:1</text>
<line x1="752.5" y1="72" x2="770.3" y2="72" stroke="#64748b" stroke-width="4"/>
<circle cx="761.4" cy="72" r="5" fill="#64748b"/>
<text x="1170" y="76" font-family="sans-serif" font-size="10" fill="#64748b">uncertain</text>
<text x="20" y="114" font-family="sans-serif" font-size="11">cooperative_limited | 800 | 1:2</text>
<line x1="739.4" y1="110" x2="771.3" y2="110" stroke="#64748b" stroke-width="4"/>
<circle cx="755.3" cy="110" r="5" fill="#64748b"/>
<text x="1170" y="114" font-family="sans-serif" font-size="10" fill="#64748b">uncertain</text>
<text x="20" y="152" font-family="sans-serif" font-size="11">cooperative_limited | 800 | 1:3</text>
<line x1="822.5" y1="148" x2="874.2" y2="148" stroke="#dc2626" stroke-width="4"/>
<circle cx="848.3" cy="148" r="5" fill="#dc2626"/>
<text x="1170" y="152" font-family="sans-serif" font-size="10" fill="#dc2626">worsens</text>
<text x="20" y="190" font-family="sans-serif" font-size="11">cooperative_limited | 800 | 1:4</text>
<line x1="760.0" y1="186" x2="760.0" y2="186" stroke="#64748b" stroke-width="4"/>
<circle cx="760.0" cy="186" r="5" fill="#64748b"/>
<text x="1170" y="190" font-family="sans-serif" font-size="10" fill="#64748b">uncertain</text>
<text x="20" y="228" font-family="sans-serif" font-size="11">cooperative_limited | 800 | 1:5</text>
<line x1="760.0" y1="224" x2="760.0" y2="224" stroke="#64748b" stroke-width="4"/>
<circle cx="760.0" cy="224" r="5" fill="#64748b"/>
<text x="1170" y="228" font-family="sans-serif" font-size="10" fill="#64748b">uncertain</text>
<text x="20" y="266" font-family="sans-serif" font-size="11">cooperative_limited | 1000 | 1:1</text>
<line x1="749.5" y1="262" x2="779.6" y2="262" stroke="#64748b" stroke-width="4"/>
<circle cx="764.5" cy="262" r="5" fill="#64748b"/>
<text x="1170" y="266" font-family="sans-serif" font-size="10" fill="#64748b">uncertain</text>
<text x="20" y="304" font-family="sans-serif" font-size="11">cooperative_limited | 1000 | 1:2</text>
<line x1="740.7" y1="300" x2="781.5" y2="300" stroke="#64748b" stroke-width="4"/>
<circle cx="761.1" cy="300" r="5" fill="#64748b"/>
<text x="1170" y="304" font-family="sans-serif" font-size="10" fill="#64748b">uncertain</text>
<text x="20" y="342" font-family="sans-serif" font-size="11">cooperative_limited | 1000 | 1:3</text>
<line x1="729.2" y1="338" x2="764.4" y2="338" stroke="#64748b" stroke-width="4"/>
<circle cx="746.8" cy="338" r="5" fill="#64748b"/>
<text x="1170" y="342" font-family="sans-serif" font-size="10" fill="#64748b">uncertain</text>
<text x="20" y="380" font-family="sans-serif" font-size="11">cooperative_limited | 1000 | 1:4</text>
<line x1="845.7" y1="376" x2="904.4" y2="376" stroke="#dc2626" stroke-width="4"/>
<circle cx="875.1" cy="376" r="5" fill="#dc2626"/>
<text x="1170" y="380" font-family="sans-serif" font-size="10" fill="#dc2626">worsens</text>
<text x="20" y="418" font-family="sans-serif" font-size="11">cooperative_limited | 1000 | 1:5</text>
<line x1="759.8" y1="414" x2="761.8" y2="414" stroke="#64748b" stroke-width="4"/>
<circle cx="760.8" cy="414" r="5" fill="#64748b"/>
<text x="1170" y="418" font-family="sans-serif" font-size="10" fill="#64748b">uncertain</text>
<text x="20" y="456" font-family="sans-serif" font-size="11">cooperative_limited | 1200 | 1:1</text>
<line x1="754.2" y1="452" x2="779.5" y2="452" stroke="#64748b" stroke-width="4"/>
<circle cx="766.9" cy="452" r="5" fill="#64748b"/>
<text x="1170" y="456" font-family="sans-serif" font-size="10" fill="#64748b">uncertain</text>
<text x="20" y="494" font-family="sans-serif" font-size="11">cooperative_limited | 1200 | 1:2</text>
<line x1="738.5" y1="490" x2="773.5" y2="490" stroke="#64748b" stroke-width="4"/>
<circle cx="756.0" cy="490" r="5" fill="#64748b"/>
<text x="1170" y="494" font-family="sans-serif" font-size="10" fill="#64748b">uncertain</text>
<text x="20" y="532" font-family="sans-serif" font-size="11">cooperative_limited | 1200 | 1:3</text>
<line x1="736.0" y1="528" x2="772.2" y2="528" stroke="#64748b" stroke-width="4"/>
<circle cx="754.1" cy="528" r="5" fill="#64748b"/>
<text x="1170" y="532" font-family="sans-serif" font-size="10" fill="#64748b">uncertain</text>
<text x="20" y="570" font-family="sans-serif" font-size="11">cooperative_limited | 1200 | 1:4</text>
<line x1="743.8" y1="566" x2="791.3" y2="566" stroke="#64748b" stroke-width="4"/>
<circle cx="767.5" cy="566" r="5" fill="#64748b"/>
<text x="1170" y="570" font-family="sans-serif" font-size="10" fill="#64748b">uncertain</text>
<text x="20" y="608" font-family="sans-serif" font-size="11">cooperative_limited | 1200 | 1:5</text>
<line x1="848.7" y1="604" x2="909.4" y2="604" stroke="#dc2626" stroke-width="4"/>
<circle cx="879.0" cy="604" r="5" fill="#dc2626"/>
<text x="1170" y="608" font-family="sans-serif" font-size="10" fill="#dc2626">worsens</text>
<text x="20" y="646" font-family="sans-serif" font-size="11">ramp_fixed_4s | 800 | 1:1</text>
<line x1="782.5" y1="642" x2="801.7" y2="642" stroke="#dc2626" stroke-width="4"/>
<circle cx="792.1" cy="642" r="5" fill="#dc2626"/>
<text x="1170" y="646" font-family="sans-serif" font-size="10" fill="#dc2626">worsens</text>
<text x="20" y="684" font-family="sans-serif" font-size="11">ramp_fixed_4s | 800 | 1:2</text>
<line x1="743.6" y1="680" x2="799.9" y2="680" stroke="#64748b" stroke-width="4"/>
<circle cx="771.8" cy="680" r="5" fill="#64748b"/>
<text x="1170" y="684" font-family="sans-serif" font-size="10" fill="#64748b">uncertain</text>
<text x="20" y="722" font-family="sans-serif" font-size="11">ramp_fixed_4s | 800 | 1:3</text>
<line x1="734.8" y1="718" x2="785.6" y2="718" stroke="#64748b" stroke-width="4"/>
<circle cx="760.2" cy="718" r="5" fill="#64748b"/>
<text x="1170" y="722" font-family="sans-serif" font-size="10" fill="#64748b">uncertain</text>
<text x="20" y="760" font-family="sans-serif" font-size="11">ramp_fixed_4s | 800 | 1:4</text>
<line x1="763.9" y1="756" x2="764.4" y2="756" stroke="#dc2626" stroke-width="4"/>
<circle cx="764.1" cy="756" r="5" fill="#dc2626"/>
<text x="1170" y="760" font-family="sans-serif" font-size="10" fill="#dc2626">worsens</text>
<text x="20" y="798" font-family="sans-serif" font-size="11">ramp_fixed_4s | 800 | 1:5</text>
<line x1="763.9" y1="794" x2="764.2" y2="794" stroke="#dc2626" stroke-width="4"/>
<circle cx="764.1" cy="794" r="5" fill="#dc2626"/>
<text x="1170" y="798" font-family="sans-serif" font-size="10" fill="#dc2626">worsens</text>
<text x="20" y="836" font-family="sans-serif" font-size="11">ramp_fixed_4s | 1000 | 1:1</text>
<line x1="787.2" y1="832" x2="807.8" y2="832" stroke="#dc2626" stroke-width="4"/>
<circle cx="797.5" cy="832" r="5" fill="#dc2626"/>
<text x="1170" y="836" font-family="sans-serif" font-size="10" fill="#dc2626">worsens</text>
<text x="20" y="874" font-family="sans-serif" font-size="11">ramp_fixed_4s | 1000 | 1:2</text>
<line x1="779.4" y1="870" x2="806.1" y2="870" stroke="#dc2626" stroke-width="4"/>
<circle cx="792.7" cy="870" r="5" fill="#dc2626"/>
<text x="1170" y="874" font-family="sans-serif" font-size="10" fill="#dc2626">worsens</text>
<text x="20" y="912" font-family="sans-serif" font-size="11">ramp_fixed_4s | 1000 | 1:3</text>
<line x1="768.0" y1="908" x2="814.2" y2="908" stroke="#dc2626" stroke-width="4"/>
<circle cx="791.1" cy="908" r="5" fill="#dc2626"/>
<text x="1170" y="912" font-family="sans-serif" font-size="10" fill="#dc2626">worsens</text>
<text x="20" y="950" font-family="sans-serif" font-size="11">ramp_fixed_4s | 1000 | 1:4</text>
<line x1="789.9" y1="946" x2="845.3" y2="946" stroke="#dc2626" stroke-width="4"/>
<circle cx="817.6" cy="946" r="5" fill="#dc2626"/>
<text x="1170" y="950" font-family="sans-serif" font-size="10" fill="#dc2626">worsens</text>
<text x="20" y="988" font-family="sans-serif" font-size="11">ramp_fixed_4s | 1000 | 1:5</text>
<line x1="829.6" y1="984" x2="852.6" y2="984" stroke="#dc2626" stroke-width="4"/>
<circle cx="841.1" cy="984" r="5" fill="#dc2626"/>
<text x="1170" y="988" font-family="sans-serif" font-size="10" fill="#dc2626">worsens</text>
<text x="20" y="1026" font-family="sans-serif" font-size="11">ramp_fixed_4s | 1200 | 1:1</text>
<line x1="787.4" y1="1022" x2="794.9" y2="1022" stroke="#dc2626" stroke-width="4"/>
<circle cx="791.1" cy="1022" r="5" fill="#dc2626"/>
<text x="1170" y="1026" font-family="sans-serif" font-size="10" fill="#dc2626">worsens</text>
<text x="20" y="1064" font-family="sans-serif" font-size="11">ramp_fixed_4s | 1200 | 1:2</text>
<line x1="787.0" y1="1060" x2="796.4" y2="1060" stroke="#dc2626" stroke-width="4"/>
<circle cx="791.7" cy="1060" r="5" fill="#dc2626"/>
<text x="1170" y="1064" font-family="sans-serif" font-size="10" fill="#dc2626">worsens</text>
<text x="20" y="1102" font-family="sans-serif" font-size="11">ramp_fixed_4s | 1200 | 1:3</text>
<line x1="776.6" y1="1098" x2="798.9" y2="1098" stroke="#dc2626" stroke-width="4"/>
<circle cx="787.8" cy="1098" r="5" fill="#dc2626"/>
<text x="1170" y="1102" font-family="sans-serif" font-size="10" fill="#dc2626">worsens</text>
<text x="20" y="1140" font-family="sans-serif" font-size="11">ramp_fixed_4s | 1200 | 1:4</text>
<line x1="780.9" y1="1136" x2="804.5" y2="1136" stroke="#dc2626" stroke-width="4"/>
<circle cx="792.7" cy="1136" r="5" fill="#dc2626"/>
<text x="1170" y="1140" font-family="sans-serif" font-size="10" fill="#dc2626">worsens</text>
<text x="20" y="1178" font-family="sans-serif" font-size="11">ramp_fixed_4s | 1200 | 1:5</text>
<line x1="774.3" y1="1174" x2="815.1" y2="1174" stroke="#dc2626" stroke-width="4"/>
<circle cx="794.7" cy="1174" r="5" fill="#dc2626"/>
<text x="1170" y="1178" font-family="sans-serif" font-size="10" fill="#dc2626">worsens</text>
<text x="20" y="1216" font-family="sans-serif" font-size="11">ramp_fixed_6s | 800 | 1:1</text>
<line x1="791.1" y1="1212" x2="812.4" y2="1212" stroke="#dc2626" stroke-width="4"/>
<circle cx="801.8" cy="1212" r="5" fill="#dc2626"/>
<text x="1170" y="1216" font-family="sans-serif" font-size="10" fill="#dc2626">worsens</text>
<text x="20" y="1254" font-family="sans-serif" font-size="11">ramp_fixed_6s | 800 | 1:2</text>
<line x1="751.3" y1="1250" x2="812.3" y2="1250" stroke="#64748b" stroke-width="4"/>
<circle cx="781.8" cy="1250" r="5" fill="#64748b"/>
<text x="1170" y="1254" font-family="sans-serif" font-size="10" fill="#64748b">uncertain</text>
<text x="20" y="1292" font-family="sans-serif" font-size="11">ramp_fixed_6s | 800 | 1:3</text>
<line x1="767.5" y1="1288" x2="788.8" y2="1288" stroke="#dc2626" stroke-width="4"/>
<circle cx="778.1" cy="1288" r="5" fill="#dc2626"/>
<text x="1170" y="1292" font-family="sans-serif" font-size="10" fill="#dc2626">worsens</text>
<text x="20" y="1330" font-family="sans-serif" font-size="11">ramp_fixed_6s | 800 | 1:4</text>
<line x1="791.4" y1="1326" x2="792.7" y2="1326" stroke="#dc2626" stroke-width="4"/>
<circle cx="792.0" cy="1326" r="5" fill="#dc2626"/>
<text x="1170" y="1330" font-family="sans-serif" font-size="10" fill="#dc2626">worsens</text>
<text x="20" y="1368" font-family="sans-serif" font-size="11">ramp_fixed_6s | 800 | 1:5</text>
<line x1="811.4" y1="1364" x2="814.1" y2="1364" stroke="#dc2626" stroke-width="4"/>
<circle cx="812.8" cy="1364" r="5" fill="#dc2626"/>
<text x="1170" y="1368" font-family="sans-serif" font-size="10" fill="#dc2626">worsens</text>
<text x="20" y="1406" font-family="sans-serif" font-size="11">ramp_fixed_6s | 1000 | 1:1</text>
<line x1="794.0" y1="1402" x2="814.3" y2="1402" stroke="#dc2626" stroke-width="4"/>
<circle cx="804.1" cy="1402" r="5" fill="#dc2626"/>
<text x="1170" y="1406" font-family="sans-serif" font-size="10" fill="#dc2626">worsens</text>
<text x="20" y="1444" font-family="sans-serif" font-size="11">ramp_fixed_6s | 1000 | 1:2</text>
<line x1="784.1" y1="1440" x2="810.5" y2="1440" stroke="#dc2626" stroke-width="4"/>
<circle cx="797.3" cy="1440" r="5" fill="#dc2626"/>
<text x="1170" y="1444" font-family="sans-serif" font-size="10" fill="#dc2626">worsens</text>
<text x="20" y="1482" font-family="sans-serif" font-size="11">ramp_fixed_6s | 1000 | 1:3</text>
<line x1="757.7" y1="1478" x2="820.4" y2="1478" stroke="#64748b" stroke-width="4"/>
<circle cx="789.0" cy="1478" r="5" fill="#64748b"/>
<text x="1170" y="1482" font-family="sans-serif" font-size="10" fill="#64748b">uncertain</text>
<text x="20" y="1520" font-family="sans-serif" font-size="11">ramp_fixed_6s | 1000 | 1:4</text>
<line x1="776.0" y1="1516" x2="821.3" y2="1516" stroke="#dc2626" stroke-width="4"/>
<circle cx="798.7" cy="1516" r="5" fill="#dc2626"/>
<text x="1170" y="1520" font-family="sans-serif" font-size="10" fill="#dc2626">worsens</text>
<text x="20" y="1558" font-family="sans-serif" font-size="11">ramp_fixed_6s | 1000 | 1:5</text>
<line x1="968.4" y1="1554" x2="970.4" y2="1554" stroke="#dc2626" stroke-width="4"/>
<circle cx="969.4" cy="1554" r="5" fill="#dc2626"/>
<text x="1170" y="1558" font-family="sans-serif" font-size="10" fill="#dc2626">worsens</text>
<text x="20" y="1596" font-family="sans-serif" font-size="11">ramp_fixed_6s | 1200 | 1:1</text>
<line x1="793.5" y1="1592" x2="801.7" y2="1592" stroke="#dc2626" stroke-width="4"/>
<circle cx="797.6" cy="1592" r="5" fill="#dc2626"/>
<text x="1170" y="1596" font-family="sans-serif" font-size="10" fill="#dc2626">worsens</text>
<text x="20" y="1634" font-family="sans-serif" font-size="11">ramp_fixed_6s | 1200 | 1:2</text>
<line x1="792.8" y1="1630" x2="810.2" y2="1630" stroke="#dc2626" stroke-width="4"/>
<circle cx="801.5" cy="1630" r="5" fill="#dc2626"/>
<text x="1170" y="1634" font-family="sans-serif" font-size="10" fill="#dc2626">worsens</text>
<text x="20" y="1672" font-family="sans-serif" font-size="11">ramp_fixed_6s | 1200 | 1:3</text>
<line x1="752.5" y1="1668" x2="819.8" y2="1668" stroke="#64748b" stroke-width="4"/>
<circle cx="786.2" cy="1668" r="5" fill="#64748b"/>
<text x="1170" y="1672" font-family="sans-serif" font-size="10" fill="#64748b">uncertain</text>
<text x="20" y="1710" font-family="sans-serif" font-size="11">ramp_fixed_6s | 1200 | 1:4</text>
<line x1="783.6" y1="1706" x2="823.8" y2="1706" stroke="#dc2626" stroke-width="4"/>
<circle cx="803.7" cy="1706" r="5" fill="#dc2626"/>
<text x="1170" y="1710" font-family="sans-serif" font-size="10" fill="#dc2626">worsens</text>
<text x="20" y="1748" font-family="sans-serif" font-size="11">ramp_fixed_6s | 1200 | 1:5</text>
<line x1="746.0" y1="1744" x2="824.3" y2="1744" stroke="#64748b" stroke-width="4"/>
<circle cx="785.2" cy="1744" r="5" fill="#64748b"/>
<text x="1170" y="1748" font-family="sans-serif" font-size="10" fill="#64748b">uncertain</text>
<text x="20" y="1786" font-family="sans-serif" font-size="11">ramp_fixed_8s | 800 | 1:1</text>
<line x1="793.1" y1="1782" x2="820.9" y2="1782" stroke="#dc2626" stroke-width="4"/>
<circle cx="807.0" cy="1782" r="5" fill="#dc2626"/>
<text x="1170" y="1786" font-family="sans-serif" font-size="10" fill="#dc2626">worsens</text>
<text x="20" y="1824" font-family="sans-serif" font-size="11">ramp_fixed_8s | 800 | 1:2</text>
<line x1="769.2" y1="1820" x2="825.8" y2="1820" stroke="#dc2626" stroke-width="4"/>
<circle cx="797.5" cy="1820" r="5" fill="#dc2626"/>
<text x="1170" y="1824" font-family="sans-serif" font-size="10" fill="#dc2626">worsens</text>
<text x="20" y="1862" font-family="sans-serif" font-size="11">ramp_fixed_8s | 800 | 1:3</text>
<line x1="766.5" y1="1858" x2="824.2" y2="1858" stroke="#dc2626" stroke-width="4"/>
<circle cx="795.3" cy="1858" r="5" fill="#dc2626"/>
<text x="1170" y="1862" font-family="sans-serif" font-size="10" fill="#dc2626">worsens</text>
<text x="20" y="1900" font-family="sans-serif" font-size="11">ramp_fixed_8s | 800 | 1:4</text>
<line x1="931.7" y1="1896" x2="933.1" y2="1896" stroke="#dc2626" stroke-width="4"/>
<circle cx="932.4" cy="1896" r="5" fill="#dc2626"/>
<text x="1170" y="1900" font-family="sans-serif" font-size="10" fill="#dc2626">worsens</text>
<text x="20" y="1938" font-family="sans-serif" font-size="11">ramp_fixed_8s | 800 | 1:5</text>
<line x1="959.7" y1="1934" x2="961.1" y2="1934" stroke="#dc2626" stroke-width="4"/>
<circle cx="960.4" cy="1934" r="5" fill="#dc2626"/>
<text x="1170" y="1938" font-family="sans-serif" font-size="10" fill="#dc2626">worsens</text>
<text x="20" y="1976" font-family="sans-serif" font-size="11">ramp_fixed_8s | 1000 | 1:1</text>
<line x1="798.0" y1="1972" x2="817.7" y2="1972" stroke="#dc2626" stroke-width="4"/>
<circle cx="807.8" cy="1972" r="5" fill="#dc2626"/>
<text x="1170" y="1976" font-family="sans-serif" font-size="10" fill="#dc2626">worsens</text>
<text x="20" y="2014" font-family="sans-serif" font-size="11">ramp_fixed_8s | 1000 | 1:2</text>
<line x1="791.4" y1="2010" x2="814.9" y2="2010" stroke="#dc2626" stroke-width="4"/>
<circle cx="803.2" cy="2010" r="5" fill="#dc2626"/>
<text x="1170" y="2014" font-family="sans-serif" font-size="10" fill="#dc2626">worsens</text>
<text x="20" y="2052" font-family="sans-serif" font-size="11">ramp_fixed_8s | 1000 | 1:3</text>
<line x1="790.1" y1="2048" x2="809.5" y2="2048" stroke="#dc2626" stroke-width="4"/>
<circle cx="799.8" cy="2048" r="5" fill="#dc2626"/>
<text x="1170" y="2052" font-family="sans-serif" font-size="10" fill="#dc2626">worsens</text>
<text x="20" y="2090" font-family="sans-serif" font-size="11">ramp_fixed_8s | 1000 | 1:4</text>
<line x1="790.0" y1="2086" x2="858.5" y2="2086" stroke="#dc2626" stroke-width="4"/>
<circle cx="824.2" cy="2086" r="5" fill="#dc2626"/>
<text x="1170" y="2090" font-family="sans-serif" font-size="10" fill="#dc2626">worsens</text>
<text x="20" y="2128" font-family="sans-serif" font-size="11">ramp_fixed_8s | 1000 | 1:5</text>
<line x1="1128.7" y1="2124" x2="1130.4" y2="2124" stroke="#dc2626" stroke-width="4"/>
<circle cx="1129.5" cy="2124" r="5" fill="#dc2626"/>
<text x="1170" y="2128" font-family="sans-serif" font-size="10" fill="#dc2626">worsens</text>
<text x="20" y="2166" font-family="sans-serif" font-size="11">ramp_fixed_8s | 1200 | 1:1</text>
<line x1="801.8" y1="2162" x2="812.1" y2="2162" stroke="#dc2626" stroke-width="4"/>
<circle cx="807.0" cy="2162" r="5" fill="#dc2626"/>
<text x="1170" y="2166" font-family="sans-serif" font-size="10" fill="#dc2626">worsens</text>
<text x="20" y="2204" font-family="sans-serif" font-size="11">ramp_fixed_8s | 1200 | 1:2</text>
<line x1="788.8" y1="2200" x2="825.8" y2="2200" stroke="#dc2626" stroke-width="4"/>
<circle cx="807.3" cy="2200" r="5" fill="#dc2626"/>
<text x="1170" y="2204" font-family="sans-serif" font-size="10" fill="#dc2626">worsens</text>
<text x="20" y="2242" font-family="sans-serif" font-size="11">ramp_fixed_8s | 1200 | 1:3</text>
<line x1="780.5" y1="2238" x2="808.6" y2="2238" stroke="#dc2626" stroke-width="4"/>
<circle cx="794.6" cy="2238" r="5" fill="#dc2626"/>
<text x="1170" y="2242" font-family="sans-serif" font-size="10" fill="#dc2626">worsens</text>
<text x="20" y="2280" font-family="sans-serif" font-size="11">ramp_fixed_8s | 1200 | 1:4</text>
<line x1="785.8" y1="2276" x2="828.0" y2="2276" stroke="#dc2626" stroke-width="4"/>
<circle cx="806.9" cy="2276" r="5" fill="#dc2626"/>
<text x="1170" y="2280" font-family="sans-serif" font-size="10" fill="#dc2626">worsens</text>
<text x="20" y="2318" font-family="sans-serif" font-size="11">ramp_fixed_8s | 1200 | 1:5</text>
<line x1="786.2" y1="2314" x2="869.2" y2="2314" stroke="#dc2626" stroke-width="4"/>
<circle cx="827.7" cy="2314" r="5" fill="#dc2626"/>
<text x="1170" y="2318" font-family="sans-serif" font-size="10" fill="#dc2626">worsens</text>
</svg>
